<svg width="52" height="53" viewBox="0 0 52 53" fill="none" xmlns="http://www.w3.org/2000/svg">
<path d="M45.8282 7H6.17195C2.76876 7 0 9.71008 0 13.0411V41.2136C0 44.5447 2.76876 47.2548 6.17195 47.2548H45.8282C49.2314 47.2548 52 44.5447 52 41.2136V13.0411C52 9.71008 49.2314 7 45.8282 7ZM45.8282 41.9214H6.17195C5.67171 41.9214 5.23297 41.5908 5.23297 41.2136V16.7665L23.1684 32.1997C23.5361 32.5163 24.0037 32.6905 24.4852 32.6905L27.5143 32.6906C27.9955 32.6906 28.4633 32.5163 28.8312 32.1997L46.7674 16.7659V41.2139C46.7672 41.5908 46.3283 41.9214 45.8282 41.9214ZM26.0001 27.3949L8.5556 12.3333H43.4445L26.0001 27.3949Z" fill="black" fill-opacity="0.7"/>
</svg>
