<svg width="52" height="53" viewBox="0 0 52 53" fill="none" xmlns="http://www.w3.org/2000/svg">
<path d="M43.9893 6.59053C43.3632 6.61829 42.7886 6.80183 42.2839 7.0046C41.8176 7.19177 40.143 7.90912 37.4766 9.04903C34.8101 10.1889 31.2769 11.7003 27.5107 13.3147C19.9785 16.5436 11.5142 20.1757 7.17708 22.0359C7.02814 22.0992 6.42327 22.2879 5.75521 22.808C5.0856 23.3293 4.3418 24.4606 4.3418 25.6978C4.3418 26.6959 4.83063 27.7123 5.4209 28.2943C6.01117 28.8763 6.6094 29.1484 7.10938 29.351C8.57207 29.9447 13.0921 31.7845 15.0566 32.5859C15.7449 34.6881 17.3613 39.6398 17.7396 40.8585H17.7354C18.043 41.8505 18.343 42.497 18.7594 43.0367C18.9677 43.3065 19.2163 43.551 19.5212 43.744C19.6381 43.8181 19.7677 43.8755 19.8978 43.9295C19.9159 43.9373 19.9346 43.9393 19.9528 43.9467L19.902 43.9338C19.9397 43.9493 19.9736 43.9721 20.012 43.9856C20.0747 44.0075 20.1181 44.0068 20.2025 44.0244C20.4993 44.1174 20.7956 44.1796 21.07 44.1796C22.2478 44.1796 22.9701 43.5284 22.9701 43.5284L23.0166 43.4939L28.1032 39.1074L34.3324 44.9776C34.4437 45.138 35.3344 46.3707 37.4004 46.3707C38.6313 46.3707 39.6088 45.754 40.2314 45.1027C40.8541 44.4513 41.242 43.7848 41.4163 42.8814V42.8728V42.8684C41.5374 42.2272 47.5186 11.6283 47.5186 11.6283L47.5059 11.6801C47.6915 10.8357 47.7463 10.0192 47.527 9.18705C47.3078 8.35494 46.7161 7.54288 46.0036 7.11674C45.2911 6.6906 44.6153 6.56277 43.9893 6.59053ZM43.1344 11.4256C42.8995 12.6278 37.5769 39.8825 37.2311 41.691L31.0443 35.8639C29.4495 34.3612 26.9628 34.3083 25.306 35.7345L22.1491 38.4561L23.8333 31.7448C23.8333 31.7448 35.4522 19.7577 36.152 19.0599C36.7154 18.5011 36.8333 18.3053 36.8333 18.111C36.8333 17.8526 36.7029 17.6667 36.4017 17.6667C36.1309 17.6667 35.763 17.9312 35.568 18.0549C33.0796 19.6361 22.4253 25.8248 17.2656 28.8162C17.0718 28.6979 16.8812 28.5751 16.6689 28.4884C14.976 27.7978 11.7219 26.4681 9.81771 25.6935C14.3119 23.7656 22.0158 20.462 29.1908 17.3864C32.9562 15.7722 36.4884 14.2595 39.1523 13.1206C41.401 12.1593 42.574 11.6616 43.1344 11.4256ZM37.1634 42.0101H37.1676C37.1675 42.0108 37.1636 42.0267 37.1634 42.0274C37.1671 42.0085 37.1609 42.0237 37.1634 42.0101Z" fill="black" fill-opacity="0.7"/>
</svg>
