<svg width="61" height="62" viewBox="0 0 61 62" fill="none" xmlns="http://www.w3.org/2000/svg">
<path d="M54.7663 18.0835H46.403C46.0616 18.0835 45.7267 18.1775 45.4337 18.3557C45.1408 18.5338 44.9008 18.7893 44.7394 19.095C44.7394 19.095 41.4038 25.3387 40.3324 27.4417C37.45 33.0991 35.5834 31.3231 35.5834 28.6974V19.6442C35.5834 18.8877 35.2877 18.1622 34.7614 17.6273C34.2351 17.0923 33.5213 16.7918 32.777 16.7918H26.4889C25.6326 16.7271 24.7742 16.886 23.9952 17.2533C23.2163 17.6207 22.5427 18.1843 22.0384 18.8908C22.0384 18.8908 25.2314 18.366 25.2314 22.7388C25.2314 23.8232 25.2864 26.9425 25.3365 29.5588C25.3459 29.9444 25.2387 30.3236 25.0294 30.6453C24.8201 30.9669 24.5187 31.2156 24.1659 31.3576C23.8131 31.4997 23.426 31.5283 23.0567 31.4396C22.6874 31.3509 22.3538 31.1492 22.1009 30.8616C19.5271 27.2232 17.3951 23.2822 15.7513 19.124C15.6102 18.813 15.3842 18.5496 15.1002 18.3652C14.8162 18.1807 14.4861 18.083 14.149 18.0835C12.3353 18.0835 8.70585 18.0835 6.55044 18.0835C6.34143 18.082 6.1352 18.1322 5.94946 18.2296C5.76373 18.327 5.60404 18.4689 5.48412 18.6429C5.36421 18.8169 5.28764 19.0179 5.26101 19.2286C5.23438 19.4393 5.25848 19.6534 5.33123 19.8526C7.63853 26.2852 17.5776 46.5001 28.9221 46.5001H33.697C34.1973 46.5001 34.6772 46.2981 35.0309 45.9386C35.3847 45.579 35.5834 45.0913 35.5834 44.5828V41.6523C35.5834 41.2847 35.6892 40.9251 35.8878 40.6178C36.0864 40.3106 36.3692 40.0691 36.7011 39.9231C37.0331 39.7772 37.3998 39.7331 37.7561 39.7964C38.1124 39.8597 38.4427 40.0275 38.7063 40.2793L44.4215 45.7371C44.9348 46.2272 45.6126 46.5001 46.3169 46.5001H53.8219C57.4417 46.5001 57.4417 43.9472 55.4681 41.9717C54.0792 40.5814 49.0674 35.2121 49.0674 35.2121C48.6382 34.7602 48.3822 34.1671 48.3457 33.5401C48.3092 32.9131 48.4945 32.2935 48.8682 31.7932C50.4882 29.6264 53.1379 26.0795 54.2616 24.5601C55.7976 22.4832 58.5776 18.0835 54.7663 18.0835Z" fill="black" fill-opacity="0.7"/>
</svg>
