<svg width="60" height="58" viewBox="0 0 60 58" fill="none" xmlns="http://www.w3.org/2000/svg">
<path d="M6.08496 52.3244L9.45246 40.4405C7.37496 36.9629 6.28246 33.0165 6.28371 28.9746C6.28996 16.3294 16.935 6.04163 30.0175 6.04163C36.3662 6.04404 42.3237 8.43292 46.805 12.7672C51.285 17.1027 53.7525 22.864 53.75 28.9927C53.745 41.6379 43.0975 51.9269 30.0175 51.9269C30.0162 51.9269 30.0175 51.9269 30.0175 51.9269H30.0075C26.0362 51.9257 22.1325 50.9626 18.6662 49.1344L6.08496 52.3244Z" fill="white"/>
<path d="M6.08503 52.9286C5.92002 52.9286 5.76002 52.8658 5.64127 52.7498C5.48502 52.5963 5.42378 52.3728 5.48253 52.1662L8.78128 40.5227C6.73628 37.0112 5.65752 33.0238 5.66002 28.9758C5.66502 15.9959 16.5913 5.4375 30.0175 5.4375C36.53 5.43992 42.6488 7.89163 47.2475 12.3407C51.8463 16.791 54.3775 22.7046 54.375 28.9928C54.37 41.9715 43.4425 52.5311 30.0175 52.5311C26.0313 52.5299 22.0875 51.5789 18.5875 49.7797L6.24377 52.9081C6.19127 52.9226 6.13877 52.9286 6.08503 52.9286Z" fill="white"/>
<path d="M30.0175 6.04171C36.3662 6.04412 42.3237 8.433 46.805 12.7673C51.285 17.1028 53.7525 22.8641 53.75 28.9928C53.745 41.638 43.0975 51.927 30.0175 51.927H30.0075C26.0362 51.9258 22.1325 50.9627 18.6662 49.1345L6.08499 52.3245L9.45249 40.4405C7.37499 36.963 6.28249 33.0165 6.28374 28.9747C6.28999 16.3295 16.935 6.04171 30.0175 6.04171ZM30.0175 4.83337C16.2475 4.83337 5.03999 15.6625 5.03374 28.9747C5.03249 33.0431 6.09499 37.0524 8.10999 40.6013L4.87874 52.0067C4.76124 52.4236 4.88124 52.8683 5.19624 53.1752C5.43374 53.4072 5.75499 53.534 6.08499 53.534C6.19124 53.534 6.29749 53.5208 6.40249 53.4942L18.5112 50.425C22.0462 52.1988 26.0087 53.1353 30.0075 53.1365C43.7875 53.1365 54.995 42.3062 55.0012 28.994C55.0037 22.5427 52.4075 16.4769 47.6912 11.9142C42.9725 7.35033 36.6962 4.83579 30.0175 4.83337Z" fill="#CFD8DC"/>
<path d="M43.97 15.5054C40.245 11.9021 35.2938 9.91686 30.0238 9.91565C19.1438 9.91565 10.295 18.4658 10.29 28.9759C10.2888 32.5779 11.3313 36.0845 13.3063 39.1211L13.7763 39.8424L11.7825 46.8762L19.2488 44.9839L19.97 45.3972C22.9975 47.1347 26.47 48.0531 30.01 48.0543H30.0175C40.89 48.0543 49.7388 39.5029 49.7425 28.9916C49.7438 23.8985 47.695 19.1087 43.97 15.5054Z" fill="black" fill-opacity="0.7"/>
<path fill-rule="evenodd" clip-rule="evenodd" d="M24.085 19.3877C23.6413 18.4331 23.1738 18.4138 22.7501 18.3969C22.4038 18.3824 22.0088 18.3836 21.6138 18.3836C21.2188 18.3836 20.5763 18.5274 20.0325 19.1013C19.4888 19.6753 17.9563 21.0612 17.9563 23.8815C17.9563 26.7017 20.0813 29.4277 20.3775 29.8096C20.6738 30.1914 24.48 36.1642 30.5075 38.4624C35.5163 40.3716 36.5363 39.9922 37.6238 39.8967C38.7113 39.8013 41.1325 38.5108 41.6263 37.1719C42.12 35.8331 42.12 34.6864 41.9725 34.4472C41.8238 34.2079 41.4288 34.0653 40.8363 33.7777C40.2438 33.4902 37.3275 32.1042 36.7838 31.9133C36.24 31.7224 35.845 31.6269 35.4488 32.2009C35.0538 32.7736 33.9175 34.0653 33.5713 34.4472C33.225 34.8302 32.8788 34.8785 32.2863 34.5909C31.6938 34.3034 29.7838 33.6992 27.5175 31.7465C25.755 30.2277 24.565 28.3511 24.2188 27.7772C23.8725 27.2044 24.1813 26.8939 24.4788 26.6075C24.745 26.3501 25.0713 25.9381 25.3688 25.6034C25.665 25.2687 25.7638 25.0294 25.9613 24.6476C26.1588 24.2645 26.06 23.9298 25.9113 23.6434C25.765 23.3559 24.6125 20.5211 24.085 19.3877Z" fill="white"/>
</svg>
