<svg width="419" height="537" viewBox="0 0 419 537" fill="none" xmlns="http://www.w3.org/2000/svg">
<path d="M40.6499 294.048C17.8418 294.048 2.17801 283.774 1.97608 283.641L1.74683 282.538L2.81113 282.302C3.06219 282.467 28.1843 298.91 61.0347 289.6C93.0282 280.541 121.256 251.028 144.953 201.877L145.93 201.495C146.154 201.583 168.547 210.776 199.586 203.819C251.533 192.181 287.407 145.089 308.359 107.629L309.407 107.335L309.691 108.431C288.569 146.19 252.363 193.678 199.815 205.401C171.336 211.758 150.002 204.713 146.018 203.234C122.184 252.434 93.7159 282.015 61.4168 291.152C54.0542 293.231 47.0628 294.048 40.6499 294.048Z" fill="#4A4E4F"/>
<path d="M15.9255 390.058H17.5137L32.9101 409.212L12.7655 434.273L15.9255 390.058ZM16.3075 384.614L33.9089 358.114L50.6533 383.344L50.8662 386.375H16.5313L16.2147 385.977L16.3075 384.614ZM19.6477 337.941H20.5209L32.981 356.716L16.5367 381.486L19.6477 337.941ZM19.9533 333.759L33.9089 308.338L46.9966 332.185L47.1495 334.249H19.9206L19.9097 334.244L19.9533 333.759ZM23.1625 288.779L33.0302 306.737L20.2099 330.077L23.1625 288.779ZM23.3972 285.557H43.6619L43.7765 287.161L33.9089 305.137L23.3699 285.954L23.3972 285.557ZM23.7683 280.392L33.4558 258.193L43.2962 280.48L43.3945 281.864H23.6646L23.7683 280.392ZM26.4863 242.402L32.6099 256.284L24.1013 275.795L26.4863 242.402ZM26.7319 238.965H40.1744L33.4504 254.371L26.7155 239.131L26.7319 238.965ZM42.9742 275.945L34.2909 256.28L40.5455 241.956L42.9742 275.945ZM46.7292 328.506L34.7876 306.737L43.9785 289.986L46.7292 328.506ZM33.9089 355.315L22.3711 337.941H45.4412L33.9089 355.315ZM47.4114 337.941L50.435 380.222L34.8367 356.716L47.2914 337.941H47.4114ZM51.1336 390.049L54.2227 433.246L34.8967 409.212L50.304 390.058H51.0081L51.1336 390.049ZM19.4949 390.058H48.312L33.9089 407.975L19.4949 390.058ZM12.7872 437.877L12.5253 437.605L12.569 436.987L33.9089 410.447L54.4246 435.961L54.5556 437.877H58.1305L47.1385 284.126L47.1112 283.806L43.7601 236.979C43.6946 236.019 42.9196 235.273 41.9809 235.273H25.0836C24.1449 235.273 23.3699 236.019 23.2989 236.979L8.93408 437.877H12.7872Z" fill="#738E9B"/>
<path d="M22.9612 283.762L22.1971 284.552L21.4331 283.762L22.1971 282.967L22.9612 283.762Z" fill="#363739"/>
<path d="M45.4906 283.762L44.721 284.552L43.9624 283.762L44.721 282.967L45.4906 283.762Z" fill="#363739"/>
<path d="M18.7586 335.801L17.9945 336.589L17.2358 335.801L17.9945 335.011L18.7586 335.801Z" fill="#363739"/>
<path d="M49.2996 335.801L48.541 336.589L47.7769 335.801L48.541 335.011L49.2996 335.801Z" fill="#363739"/>
<path d="M15.4507 388.24L14.6866 389.029L13.928 388.24L14.6866 387.451L15.4507 388.24Z" fill="#738E9B"/>
<path d="M53.0002 388.24L52.2307 389.029L51.4666 388.24L52.2307 387.451L53.0002 388.24Z" fill="#738E9B"/>
<path d="M47.6466 237.645H19.1406V232.377H47.6466V237.645Z" fill="#363739"/>
<path d="M41.2877 233.696H25.5093L32.8882 219.99L41.2877 233.696Z" fill="#1E1F20"/>
<path d="M2.39551 537H64.6633V434.67H2.39551V537Z" fill="#8A8D8C"/>
<path d="M2.39551 537H64.6633V492.998H2.39551V537Z" fill="#4A4E4F"/>
<path d="M34.2913 388.24L33.5272 389.029L32.7686 388.24L33.5272 387.451L34.2913 388.24Z" fill="#363739"/>
<path d="M34.2968 388.24L33.5272 389.029L32.7686 388.24L33.5272 387.451L34.2968 388.24Z" fill="#363739"/>
<path d="M67.0707 286.963H0V278.98H67.0707V286.963Z" fill="#888A8B"/>
<path d="M162.658 343.36H164.743L185.04 368.602L158.488 401.626L162.658 343.36ZM163.165 336.186L186.35 301.253L208.427 334.513L208.71 338.504H163.455L163.029 337.979L163.165 336.186ZM167.564 274.676H168.71L185.127 299.417L163.46 332.06L167.564 274.676ZM167.957 269.162L186.35 235.666L203.602 267.088L203.804 269.814H167.919L167.908 269.803L167.957 269.162ZM172.198 209.888L185.193 233.552L168.307 264.314L172.198 209.888ZM172.498 205.639H199.208L199.356 207.758L186.35 231.45L172.46 206.158L172.498 205.639ZM172.989 198.835L185.755 169.581L198.728 198.952L198.859 200.777H172.847L172.989 198.835ZM176.564 148.772L184.647 167.067L173.42 192.783L176.564 148.772ZM176.897 144.241H194.613L185.744 164.541L176.875 144.461L176.897 144.241ZM198.302 192.971L186.858 167.061L195.104 148.184L198.302 192.971ZM203.258 262.239L187.507 233.552L199.629 211.481L203.258 262.239ZM186.35 297.578L171.145 274.676H201.555L186.35 297.578ZM204.142 274.676L208.132 330.393L187.572 299.417L203.995 274.676H204.142ZM209.06 343.342L213.131 400.273L187.66 368.602L207.957 343.36H208.88L209.06 343.342ZM167.357 343.36H205.338L186.35 366.975L167.357 343.36ZM158.515 406.375L158.166 406.011L158.226 405.201L186.35 370.23L213.388 403.848L213.568 406.375H218.272L203.788 203.757L203.749 203.333L199.339 141.619C199.247 140.359 198.226 139.376 196.993 139.376H174.719C173.486 139.376 172.46 140.359 172.373 141.619L153.434 406.375H158.515Z" fill="#738E9B"/>
<path d="M171.926 203.278C171.926 203.845 171.484 204.315 170.916 204.315C170.365 204.315 169.917 203.845 169.917 203.278C169.917 202.697 170.365 202.234 170.916 202.234C171.484 202.234 171.926 202.697 171.926 203.278Z" fill="#363739"/>
<path d="M201.616 203.278C201.616 203.845 201.163 204.315 200.606 204.315C200.05 204.315 199.602 203.845 199.602 203.278C199.602 202.697 200.05 202.234 200.606 202.234C201.163 202.234 201.616 202.697 201.616 203.278Z" fill="#363739"/>
<path d="M166.397 271.855C166.397 272.429 165.938 272.899 165.387 272.899C164.83 272.899 164.383 272.429 164.383 271.855C164.383 271.281 164.83 270.813 165.387 270.813C165.938 270.813 166.397 271.281 166.397 271.855Z" fill="#363739"/>
<path d="M206.642 271.855C206.642 272.429 206.195 272.899 205.643 272.899C205.081 272.899 204.634 272.429 204.634 271.855C204.634 271.281 205.081 270.813 205.643 270.813C206.195 270.813 206.642 271.281 206.642 271.855Z" fill="#363739"/>
<path d="M162.025 340.964C162.025 341.539 161.583 342.006 161.027 342.006C160.47 342.006 160.017 341.539 160.017 340.964C160.017 340.384 160.47 339.921 161.027 339.921C161.583 339.921 162.025 340.384 162.025 340.964Z" fill="#738E9B"/>
<path d="M211.51 340.964C211.51 341.539 211.057 342.006 210.495 342.006C209.944 342.006 209.497 341.539 209.497 340.964C209.497 340.384 209.944 339.921 210.495 339.921C211.057 339.921 211.51 340.384 211.51 340.964Z" fill="#738E9B"/>
<path d="M204.465 142.506H166.893V135.557H204.465V142.506Z" fill="#363739"/>
<path d="M196.076 137.291H175.277L185.008 119.239L196.076 137.291Z" fill="#1E1F20"/>
<path d="M144.828 537H226.884V402.144H144.828V537Z" fill="#8A8D8C"/>
<path d="M144.828 537H226.884V479.009H144.828V537Z" fill="#4A4E4F"/>
<path d="M186.858 340.964C186.858 341.543 186.416 342.006 185.859 342.006C185.303 342.006 184.85 341.543 184.85 340.964C184.85 340.391 185.303 339.921 185.859 339.921C186.416 339.921 186.858 340.391 186.858 340.964Z" fill="#363739"/>
<path d="M186.864 340.964C186.864 341.543 186.405 342.006 185.859 342.006C185.303 342.006 184.85 341.543 184.85 340.964C184.85 340.391 185.303 339.921 185.859 339.921C186.405 339.921 186.864 340.391 186.864 340.964Z" fill="#363739"/>
<path d="M230.046 207.493H141.668V196.97H230.046V207.493Z" fill="#888A8B"/>
<path d="M331.625 288.095H334.31L360.404 320.539L326.266 362.992L331.625 288.095ZM332.286 278.874L362.09 233.972L390.465 276.722L390.826 281.85H332.657L332.111 281.181L332.286 278.874ZM337.934 199.807H339.402L360.519 231.61L332.668 273.573L337.934 199.807ZM338.447 192.722L362.09 149.66L384.26 190.058L384.517 193.556H338.393V193.539L338.447 192.722ZM343.894 116.528L360.6 146.948L338.895 186.481L343.894 116.528ZM344.287 111.07H378.611L378.813 113.787L362.09 144.241L344.238 111.742L344.287 111.07ZM344.909 102.323L361.321 64.7165L378.005 102.476L378.169 104.821H344.729L344.909 102.323ZM349.516 37.9747L359.896 61.4847L345.472 94.5432L349.516 37.9747ZM349.936 32.1439H372.706L361.31 58.2415L349.909 32.4321L349.936 32.1439ZM377.449 94.7862L362.74 61.479L373.333 37.212L377.449 94.7862ZM383.823 183.826L363.575 146.948L379.157 118.573L383.823 183.826ZM362.09 229.244L342.552 199.807H381.629L362.09 229.244ZM384.964 199.807L390.083 271.421L363.657 231.61L384.768 199.807H384.964ZM391.273 288.073L396.507 361.259L363.771 320.539L389.86 288.095H391.049L391.273 288.073ZM337.678 288.095H386.492L362.09 318.447L337.678 288.095ZM326.304 369.099L325.862 368.625L325.938 367.587L362.09 322.636L396.84 365.85L397.075 369.099H403.128L384.5 108.657L384.451 108.103L378.786 28.7933C378.666 27.1548 377.35 25.8949 375.773 25.8949H347.131C345.543 25.8949 344.233 27.1548 344.123 28.7933L319.782 369.099H326.304Z" fill="#738E9B"/>
<path d="M343.545 108.029C343.545 108.764 342.977 109.368 342.257 109.368C341.537 109.368 340.958 108.764 340.958 108.029C340.958 107.283 341.537 106.69 342.257 106.69C342.977 106.69 343.545 107.283 343.545 108.029Z" fill="#363739"/>
<path d="M381.706 108.029C381.706 108.764 381.128 109.368 380.413 109.368C379.698 109.368 379.114 108.764 379.114 108.029C379.114 107.283 379.698 106.69 380.413 106.69C381.128 106.69 381.706 107.283 381.706 108.029Z" fill="#363739"/>
<path d="M336.429 196.182C336.429 196.926 335.856 197.522 335.141 197.522C334.426 197.522 333.853 196.926 333.853 196.182C333.853 195.447 334.426 194.847 335.141 194.847C335.856 194.847 336.429 195.447 336.429 196.182Z" fill="#363739"/>
<path d="M388.173 196.182C388.173 196.926 387.589 197.522 386.88 197.522C386.17 197.522 385.581 196.926 385.581 196.182C385.581 195.447 386.17 194.847 386.88 194.847C387.589 194.847 388.173 195.447 388.173 196.182Z" fill="#363739"/>
<path d="M330.823 285.009C330.823 285.749 330.256 286.355 329.535 286.355C328.82 286.355 328.236 285.749 328.236 285.009C328.236 284.27 328.82 283.674 329.535 283.674C330.256 283.674 330.823 284.27 330.823 285.009Z" fill="#738E9B"/>
<path d="M394.422 285.009C394.422 285.749 393.844 286.355 393.129 286.355C392.414 286.355 391.841 285.749 391.841 285.009C391.841 284.27 392.414 283.674 393.129 283.674C393.844 283.674 394.422 284.27 394.422 285.009Z" fill="#738E9B"/>
<path d="M385.368 29.9113H337.077V20.9842H385.368V29.9113Z" fill="#363739"/>
<path d="M374.594 23.2218H347.856L360.36 3.59707e-05L374.594 23.2218Z" fill="#1E1F20"/>
<path d="M308.708 537H414.19V363.664H308.708V537Z" fill="#8A8D8C"/>
<path d="M308.708 537H414.19V462.463H308.708V537Z" fill="#4A4E4F"/>
<path d="M362.745 285.016C362.745 285.755 362.167 286.355 361.446 286.355C360.737 286.355 360.158 285.755 360.158 285.016C360.158 284.27 360.737 283.674 361.446 283.674C362.167 283.674 362.745 284.27 362.745 285.016Z" fill="#363739"/>
<path d="M362.751 285.016C362.751 285.755 362.167 286.355 361.446 286.355C360.742 286.355 360.158 285.755 360.158 285.016C360.158 284.27 360.742 283.674 361.446 283.674C362.167 283.674 362.751 284.27 362.751 285.016Z" fill="#363739"/>
<path d="M418.257 113.448H304.643V99.927H418.257V113.448Z" fill="#888A8B"/>
<path d="M108.964 291.366C83.2797 291.366 64.6032 283.806 64.3794 283.714L63.9482 282.676L64.9471 282.228C65.2199 282.339 92.034 293.175 125.528 288.673C156.408 284.524 199.498 266.095 229.352 201.887L230.279 201.473C230.569 201.568 259.195 210.782 296.406 203.823C330.735 197.401 379.621 175.503 417.59 107.628L418.644 107.335L418.928 108.431C380.647 176.87 331.281 198.941 296.619 205.408C262.131 211.841 234.93 204.514 230.454 203.19C213.726 238.9 182.016 282.721 125.659 290.262C119.863 291.035 114.258 291.366 108.964 291.366Z" fill="#4A4E4F"/>
<path d="M58.1524 453.759C54.7249 452.055 47.3569 443.935 39.5032 434.67H64.6635V443.553C62.4367 446.937 60.2918 450.346 58.1524 453.759Z" fill="#686C6D"/>
<path d="M193.565 439.292C192.572 439.294 191.53 439.219 190.433 439.078C190.427 439.078 190.427 439.078 190.427 439.078C190.411 439.076 190.394 439.073 190.378 439.071C190.372 439.069 190.372 439.069 190.367 439.069C190.345 439.066 190.318 439.063 190.296 439.06C190.285 439.058 190.274 439.058 190.263 439.056C190.258 439.054 190.247 439.053 190.236 439.051C190.225 439.049 190.209 439.049 190.198 439.047C190.192 439.044 190.181 439.044 190.176 439.042C190.16 439.04 190.138 439.038 190.116 439.036C190.116 439.036 190.116 439.036 190.111 439.036C190.089 439.031 190.067 439.029 190.05 439.025C190.045 439.025 190.04 439.025 190.034 439.025C190.018 439.02 189.996 439.018 189.974 439.016C188.664 438.826 187.289 438.548 185.859 438.188V402.145H226.885V417.949C214.769 427.557 204.721 435.076 199.547 437.97C197.915 438.881 195.896 439.292 193.565 439.292Z" fill="#686C6D"/>
<path d="M414.191 397.573C407.025 389.363 399.575 380.509 393.222 373.042C394.286 373.357 395.427 373.53 396.606 373.53C402.604 373.53 407.467 369.118 407.516 363.664H414.191V397.573ZM385.718 364.311C385.527 364.09 385.336 363.876 385.15 363.664H385.69C385.69 363.88 385.701 364.097 385.718 364.311Z" fill="#686C6D"/>
</svg>
