<svg width="476" height="537" viewBox="0 0 476 537" fill="none" xmlns="http://www.w3.org/2000/svg">
<g clip-path="url(#clip0)">
<path d="M292.239 167.441C298.865 160.378 303.788 152.074 306.674 143.088C309.56 134.102 310.342 124.644 308.968 115.352C307.594 106.06 304.096 97.1512 298.709 89.2266C293.323 81.302 286.173 74.5463 277.744 69.4156C282.103 63.1254 284.413 55.7942 284.396 48.3074C284.396 27.1391 266.389 9.97644 244.131 9.97644C235.343 10.0324 226.815 12.7564 219.839 17.7353C212.864 22.7142 207.821 29.6763 205.477 37.5657C200.24 29.1999 192.747 22.2535 183.741 17.4145C174.735 12.5754 164.529 10.0114 154.132 9.97644C121.019 9.97644 94.1704 35.4804 94.1704 67.1053C94.1652 73.8292 95.4076 80.5035 97.8426 86.8333C96.6185 86.7433 95.4106 86.6533 94.1704 86.6533C67.5798 86.6533 46.0303 107.176 46.0303 132.5C46.0303 134.001 46.127 135.606 46.288 137.136C35.4685 141.656 26.2914 149.006 19.8725 158.293C13.4535 167.58 10.0691 178.404 10.1306 189.449C10.1306 220.954 36.8984 246.458 69.8991 246.458C73.3713 246.456 76.8366 246.17 80.2551 245.603C80.0779 247.493 79.9652 249.413 79.9652 251.349C79.9652 286.634 110.002 315.244 147.03 315.244C160.752 315.237 174.128 311.229 185.281 303.782C194.247 311.116 205.769 315.163 217.702 315.169C245.387 315.169 267.807 293.805 267.807 267.431C267.807 266.291 267.71 265.166 267.629 264.056H267.807C297.441 264.056 321.471 241.162 321.471 212.943C321.516 203.596 318.817 194.416 313.664 186.396C308.512 178.376 301.103 171.821 292.239 167.441Z" fill="url(#paint0_linear)"/>
<path d="M183.139 99.5853H175.295V455.47H183.139V99.5853Z" fill="#DCE7FF"/>
<path d="M238.894 139.752L174.583 204.444L180.338 209.408L244.649 144.716L238.894 139.752Z" fill="#DCE7FF"/>
<path d="M113.115 213.504L108.438 219.37L175.118 265.498L179.795 259.632L113.115 213.504Z" fill="#DCE7FF"/>
<path d="M207.829 239.055C197.756 229.073 192.141 215.893 192.126 202.194C192.182 192.743 194.867 183.467 199.92 175.271C204.973 167.076 212.22 160.24 220.955 155.432C217.037 150.137 214.936 143.859 214.931 137.429C214.931 119.426 231.198 104.724 251.282 104.724C259.034 104.653 266.605 106.902 272.882 111.139C279.159 115.377 283.81 121.379 286.151 128.262C291.105 121.003 297.957 115.035 306.064 110.918C314.172 106.801 323.269 104.67 332.503 104.724C362.412 104.724 386.667 126.537 386.667 153.451C386.681 159.202 385.568 164.906 383.382 170.284C384.477 170.209 385.572 170.134 386.699 170.134C410.697 170.134 430.185 187.642 430.185 209.245C430.183 210.568 430.108 211.89 429.959 213.206C439.524 216.815 447.724 222.987 453.521 230.94C459.318 238.893 462.452 248.27 462.525 257.882C462.525 284.722 438.367 306.46 408.539 306.46C405.408 306.459 402.284 306.213 399.197 305.725C399.358 307.345 399.455 308.98 399.455 310.631C399.455 340.74 372.349 365.149 338.897 365.149C326.635 365.155 314.647 361.761 304.463 355.397C296.211 361.707 285.859 365.144 275.183 365.119C250.187 365.119 229.926 346.876 229.926 324.388C229.926 323.412 230.022 322.452 230.087 321.507H229.926C203.174 321.507 181.48 302.004 181.48 277.895C181.543 269.776 184.044 261.835 188.701 254.971C193.357 248.107 199.983 242.593 207.829 239.055Z" fill="url(#paint1_linear)"/>
<path d="M315.367 182.031H305.575V484.988H315.367V182.031Z" fill="#DCE7FF"/>
<path d="M256.884 214.404L249.891 220.79L307.967 275.974L314.96 269.588L256.884 214.404Z" fill="#DCE7FF"/>
<path d="M368.872 277.096L308.663 316.453L314.288 323.92L374.497 284.562L368.872 277.096Z" fill="#DCE7FF"/>
<path d="M357.693 530.767H175.698V537.083H357.693V530.767Z" fill="url(#paint2_linear)"/>
<path d="M492.981 505.263H375.409V511.579H492.981V505.263Z" fill="url(#paint3_linear)"/>
<path d="M539.688 530.767H473.654V537.083H539.688V530.767Z" fill="url(#paint4_linear)"/>
<path d="M356.517 532.117H178.226V535.763H356.517V532.117Z" fill="#B0BEC5"/>
<path d="M489.744 506.568H380.031V510.214H489.744V506.568Z" fill="#B0BEC5"/>
<path d="M411.373 159.82H405.495V179.893H411.373V159.82Z" fill="#70DDFF"/>
<path d="M411.373 154.344H356.517V159.82H411.373V154.344Z" fill="#70DDFF"/>
<path d="M407.009 213.648C418.012 213.648 426.931 205.339 426.931 195.09C426.931 184.841 418.012 176.532 407.009 176.532C396.006 176.532 387.086 184.841 387.086 195.09C387.086 205.339 396.006 213.648 407.009 213.648Z" fill="url(#paint5_linear)"/>
<path d="M407.009 209.192C417.149 209.192 425.369 201.535 425.369 192.09C425.369 182.644 417.149 174.987 407.009 174.987C396.868 174.987 388.648 182.644 388.648 192.09C388.648 201.535 396.868 209.192 407.009 209.192Z" fill="#FFEB3B"/>
<path d="M362.396 101.416H356.517V373.348H362.396V101.416Z" fill="#70DDFF"/>
<path d="M359.013 104.656C367.09 104.656 373.638 98.5574 373.638 91.0341C373.638 83.5108 367.09 77.412 359.013 77.412C350.937 77.412 344.389 83.5108 344.389 91.0341C344.389 98.5574 350.937 104.656 359.013 104.656Z" fill="#4F79A4"/>
<path d="M434.888 174.417H380.031V179.893H434.888V174.417Z" fill="#70DDFF"/>
<path d="M358.675 451.84C348.384 451.84 339.976 454.135 339.976 444.549V374.863C339.989 370.246 341.963 365.821 345.466 362.554C348.97 359.288 353.718 357.446 358.675 357.43C363.632 357.446 368.381 359.288 371.884 362.554C375.388 365.821 377.361 370.246 377.374 374.863V444.549C377.374 454.135 368.967 451.84 358.675 451.84Z" fill="#70DDFF"/>
</g>
<defs>
<linearGradient id="paint0_linear" x1="83.2688" y1="43.0634" x2="183.642" y2="308.578" gradientUnits="userSpaceOnUse">
<stop stop-color="#00B1B1"/>
<stop offset="1" stop-color="#70DDFF"/>
</linearGradient>
<linearGradient id="paint1_linear" x1="278.227" y1="179.133" x2="391.263" y2="445.906" gradientUnits="userSpaceOnUse">
<stop stop-color="#00B1B1"/>
<stop offset="1" stop-color="#6BD7FD"/>
<stop offset="1" stop-color="#70DDFF"/>
</linearGradient>
<linearGradient id="paint2_linear" x1="30312.3" y1="2791.91" x2="30312.3" y2="2765.32" gradientUnits="userSpaceOnUse">
<stop stop-color="#808080" stop-opacity="0.25"/>
<stop offset="0.54" stop-color="#808080" stop-opacity="0.12"/>
<stop offset="1" stop-color="#808080" stop-opacity="0.1"/>
</linearGradient>
<linearGradient id="paint3_linear" x1="32071.7" y1="2659.01" x2="32071.7" y2="2632.42" gradientUnits="userSpaceOnUse">
<stop stop-color="#808080" stop-opacity="0.25"/>
<stop offset="0.54" stop-color="#808080" stop-opacity="0.12"/>
<stop offset="1" stop-color="#808080" stop-opacity="0.1"/>
</linearGradient>
<linearGradient id="paint4_linear" x1="21247.2" y1="2791.91" x2="21247.2" y2="2765.32" gradientUnits="userSpaceOnUse">
<stop stop-color="#808080" stop-opacity="0.25"/>
<stop offset="0.54" stop-color="#808080" stop-opacity="0.12"/>
<stop offset="1" stop-color="#808080" stop-opacity="0.1"/>
</linearGradient>
<linearGradient id="paint5_linear" x1="10456.5" y1="5462.19" x2="10456.5" y2="4543.57" gradientUnits="userSpaceOnUse">
<stop stop-color="#808080" stop-opacity="0.25"/>
<stop offset="0.54" stop-color="#808080" stop-opacity="0.12"/>
<stop offset="1" stop-color="#808080" stop-opacity="0.1"/>
</linearGradient>
<clipPath id="clip0">
<rect width="476" height="537" fill="white"/>
</clipPath>
</defs>
</svg>
